<svg width="100" height="100" xmlns="http://www.w3.org/2000/svg">
 <g id="Layer_1">
  <title>Layer 1</title>
  <path fill="#74556D" stroke="#000" stroke-width="0.001" opacity="undefined" d="m49.92166,95.0348c-24.86188,0 -45,-20.13812 -45,-45c0,-24.86188 20.13812,-45 45,-45c24.86188,0 45,20.13812 45,45c0,24.86188 -20.13812,45 -45,45z" id="svg_1"/>
  <g id="svg_155">
   <g id="svg_101" transform="rotate(-112 13.6206 47.9922)">
    <path fill="#729C62" stroke="#000" stroke-width="0.2" d="m10.02308,50.15601l3.59756,-5.97561l3.59756,5.97561l-7.19512,0z" id="svg_34"/>
    <path fill="#729C62" stroke="#000" d="m10.02308,46.85524l3.59756,-5.97561l3.59756,5.97561l-7.19512,0z" id="svg_33" stroke-width="0.2"/>
    <rect fill="#482816" stroke-width="0.2" x="12.22308" y="50.28063" width="3.17073" height="4.8242" id="svg_35" stroke="#000"/>
   </g>
   <g id="svg_105" transform="rotate(-112 18.0366 51.5535)">
    <path fill="#729C62" stroke="#000" stroke-width="0.2" d="m14.43903,53.71726l3.59756,-5.97561l3.59756,5.97561l-7.19512,0z" id="svg_102"/>
    <path fill="#729C62" stroke="#000" d="m14.43903,50.41649l3.59756,-5.97561l3.59756,5.97561l-7.19512,0z" id="svg_103" stroke-width="0.2"/>
    <rect fill="#482816" stroke-width="0.2" x="16.63903" y="53.84188" width="3.17073" height="4.8242" id="svg_104" stroke="#000"/>
   </g>
   <g id="svg_109" stroke="null" transform="rotate(-112 15.0249 50.345)">
    <path fill="#729C62" stroke-width="0.2" d="m11.42732,52.96956l3.59756,-7.24805l3.59756,7.24805l-7.19512,0z" id="svg_106" stroke="#000"/>
    <path fill="#729C62" d="m11.42732,48.96593l3.59756,-7.24805l3.59756,7.24805l-7.19512,0z" id="svg_107" stroke-width="0.2" stroke="#000"/>
    <rect fill="#482816" stroke-width="0.2" x="13.62731" y="53.12071" width="3.17073" height="5.85145" id="svg_108" stroke="#000"/>
   </g>
   <g id="svg_113" transform="rotate(-112 17.0394 55.7557)">
    <path fill="#729C62" stroke="#000" stroke-width="0.2" d="m13.44188,57.91954l3.59756,-5.97561l3.59756,5.97561l-7.19512,0z" id="svg_110"/>
    <path fill="#729C62" stroke="#000" d="m13.44188,54.61877l3.59756,-5.97561l3.59756,5.97561l-7.19512,0z" id="svg_111" stroke-width="0.2"/>
    <rect fill="#482816" stroke-width="0.2" x="15.64188" y="58.04416" width="3.17073" height="4.8242" id="svg_112" stroke="#000"/>
   </g>
   <g id="svg_117" transform="rotate(-112 15.1876 53.4053)">
    <path fill="#729C62" stroke="#000" stroke-width="0.2" d="m11.59003,55.56912l3.59756,-5.97561l3.59756,5.97561l-7.19512,0z" id="svg_114"/>
    <path fill="#729C62" stroke="#000" d="m11.59003,52.26835l3.59756,-5.97561l3.59756,5.97561l-7.19512,0z" id="svg_115" stroke-width="0.2"/>
    <rect fill="#482816" stroke-width="0.2" x="13.79003" y="55.69373" width="3.17073" height="4.8242" id="svg_116" stroke="#000"/>
   </g>
   <g id="svg_121" stroke="null" transform="rotate(-112 20.1308 58.0837)">
    <path fill="#729C62" stroke-width="0.2" d="m16.53324,60.5185l3.59756,-6.72406l3.59756,6.72406l-7.19512,0z" id="svg_118" stroke="#000"/>
    <path fill="#729C62" d="m16.53324,56.80431l3.59756,-6.72406l3.59756,6.72406l-7.19512,0z" id="svg_119" stroke-width="0.2" stroke="#000"/>
    <rect fill="#482816" stroke-width="0.2" x="18.73324" y="60.65873" width="3.17073" height="5.42843" id="svg_120" stroke="#000"/>
   </g>
   <g id="svg_125" transform="rotate(-112 21.3841 60.0292)">
    <path fill="#729C62" stroke="#000" stroke-width="0.2" d="m17.78661,62.19305l3.59756,-5.97561l3.59756,5.97561l-7.19512,0z" id="svg_122"/>
    <path fill="#729C62" stroke="#000" d="m17.78661,58.89228l3.59756,-5.97561l3.59756,5.97561l-7.19512,0z" id="svg_123" stroke-width="0.2"/>
    <rect fill="#482816" stroke-width="0.2" x="19.98661" y="62.31766" width="3.17073" height="4.8242" id="svg_124" stroke="#000"/>
   </g>
   <g id="svg_129" transform="rotate(-112 24.9454 61.8099)">
    <path fill="#729C62" stroke="#000" stroke-width="0.2" d="m21.34787,63.97367l3.59756,-5.97561l3.59756,5.97561l-7.19512,0z" id="svg_126"/>
    <path fill="#729C62" stroke="#000" d="m21.34787,60.6729l3.59756,-5.97561l3.59756,5.97561l-7.19512,0z" id="svg_127" stroke-width="0.2"/>
    <rect fill="#482816" stroke-width="0.2" x="23.54786" y="64.09829" width="3.17073" height="4.8242" id="svg_128" stroke="#000"/>
   </g>
   <g id="svg_133" stroke="null" transform="rotate(-112 24.3888 64.8866)">
    <path fill="#729C62" stroke-width="0.2" d="m20.79127,67.46665l3.59756,-7.12532l3.59756,7.12532l-7.19512,0z" id="svg_130" stroke="#000"/>
    <path fill="#729C62" d="m20.79127,63.53081l3.59756,-7.12532l3.59756,7.12532l-7.19512,0z" id="svg_131" stroke-width="0.2" stroke="#000"/>
    <rect fill="#482816" stroke-width="0.2" x="22.99127" y="67.61524" width="3.17073" height="5.75237" id="svg_132" stroke="#000"/>
   </g>
   <g id="svg_137" stroke="null" transform="rotate(-112 22.776 62.1734)">
    <path fill="#729C62" stroke-width="0.2" d="m19.17848,64.79386l3.59756,-7.23684l3.59756,7.23684l-7.19512,0z" id="svg_134" stroke="#000"/>
    <path fill="#729C62" d="m19.17848,60.79642l3.59756,-7.23684l3.59756,7.23684l-7.19512,0z" id="svg_135" stroke-width="0.2" stroke="#000"/>
    <rect fill="#482816" stroke-width="0.2" x="21.37847" y="64.94478" width="3.17073" height="5.84241" id="svg_136" stroke="#000"/>
   </g>
   <g id="svg_141" transform="rotate(-112 26.085 67.7928)">
    <path fill="#729C62" stroke="#000" stroke-width="0.2" d="m22.48747,69.95658l3.59756,-5.97561l3.59756,5.97561l-7.19512,0z" id="svg_138"/>
    <path fill="#729C62" stroke="#000" d="m22.48747,66.65581l3.59756,-5.97561l3.59756,5.97561l-7.19512,0z" id="svg_139" stroke-width="0.2"/>
    <rect fill="#482816" stroke-width="0.2" x="24.68746" y="70.0812" width="3.17073" height="4.8242" id="svg_140" stroke="#000"/>
   </g>
   <g id="svg_145" transform="rotate(-112 25.7289 71.8526)">
    <path fill="#729C62" stroke="#000" stroke-width="0.2" d="m22.13134,74.01641l3.59756,-5.97561l3.59756,5.97561l-7.19512,0z" id="svg_142"/>
    <path fill="#729C62" stroke="#000" d="m22.13134,70.71564l3.59756,-5.97561l3.59756,5.97561l-7.19512,0z" id="svg_143" stroke-width="0.2"/>
    <rect fill="#482816" stroke-width="0.2" x="24.33134" y="74.14103" width="3.17073" height="4.8242" id="svg_144" stroke="#000"/>
   </g>
   <g id="svg_149" transform="rotate(-112 25.5152 76.6247)">
    <path fill="#729C62" stroke="#000" stroke-width="0.2" d="m21.91767,78.78849l3.59756,-5.97561l3.59756,5.97561l-7.19512,0z" id="svg_146"/>
    <path fill="#729C62" stroke="#000" d="m21.91767,75.48772l3.59756,-5.97561l3.59756,5.97561l-7.19512,0z" id="svg_147" stroke-width="0.2"/>
    <rect fill="#482816" stroke-width="0.2" x="24.11766" y="78.91311" width="3.17073" height="4.8242" id="svg_148" stroke="#000"/>
   </g>
   <g id="svg_153" transform="rotate(-112 27.7232 79.7586)">
    <path fill="#729C62" stroke="#000" stroke-width="0.2" d="m24.12564,81.92239l3.59756,-5.97561l3.59756,5.97561l-7.19512,0z" id="svg_150"/>
    <path fill="#729C62" stroke="#000" d="m24.12564,78.62162l3.59756,-5.97561l3.59756,5.97561l-7.19512,0z" id="svg_151" stroke-width="0.2"/>
    <rect fill="#482816" stroke-width="0.2" x="26.32564" y="82.04701" width="3.17073" height="4.8242" id="svg_152" stroke="#000"/>
   </g>
  </g>
  <path id="svg_31" d="m72.77595,20.01659c-8.70647,4.72637 -18.7811,2.11443 -7.71144,5.47264c11.06965,3.35821 -5.84577,12.43781 3.10945,5.72139c8.95523,-6.71642 9.20398,12.68657 9.32836,0.37313c0.12438,-12.31343 1.36816,-10.8209 0,-12.31343c-1.36816,-1.49254 -10.94528,-9.70149 -12.06468,-6.46766c-1.1194,3.23383 -7.21393,4.47761 -2.73632,5.47264c4.47761,0.99503 18.7811,-2.98508 10.07463,1.74129z" opacity="NaN" stroke="#000" fill="#845335" transform="rotate(-28 69.1666 23.9153)"/>
  <ellipse fill="#ffffff" stroke="#000" cx="62.94428" cy="18.07737" id="svg_7" rx="0.80247" ry="0.8642" stroke-width="0.001"/>
  <path fill="#BBBBBB" d="m64.13187,89.99054l4.47761,-21.51741l4.47761,21.51741l-8.95522,0z" id="svg_157" stroke-width="0.2" stroke="#000" transform="rotate(116 68.6095 79.2318)"/>
  <path fill="#BBBBBB" d="m66.86653,86.356l4.9234,-21.51742l4.9234,21.51742l-9.8468,0z" id="svg_159" stroke-width="0.2" stroke="#000" transform="rotate(116 71.7899 75.5973)"/>
  <path fill="#BBBBBB" d="m71.71893,82.2791l4.47761,-21.51742l4.47761,21.51742l-8.95522,0z" id="svg_160" stroke-width="0.2" stroke="#000" transform="rotate(116 76.1965 71.5204)"/>
  <path fill="#BBBBBB" d="m74.20649,75.81144l4.47761,-21.51742l4.47761,21.51742l-8.95522,0z" id="svg_161" stroke-width="0.2" stroke="#000" transform="rotate(116 78.6841 65.0527)"/>
  <path fill="#BBBBBB" d="m78.18659,70.09004l4.47761,-21.51742l4.47761,21.51742l-8.95522,0z" id="svg_162" stroke-width="0.2" stroke="#000" transform="rotate(116 82.6642 59.3313)"/>
  <path fill="#BBBBBB" d="m79.43037,60.01541l4.47761,-21.51742l4.47761,21.51742l-8.95522,0z" id="svg_163" stroke-width="0.2" stroke="#000" transform="rotate(99 83.908 49.2567)"/>
  <path fill="#BBBBBB" d="m77.5647,71.58258l4.47761,-21.51742l4.47761,21.51742l-8.95522,0z" id="svg_164" stroke-width="0.2" stroke="#000" transform="rotate(116 82.0423 60.8238)"/>
  <path fill="#BBBBBB" d="m72.09206,80.78656l4.47761,-21.51742l4.47761,21.51742l-8.95522,0z" id="svg_165" stroke-width="0.2" stroke="#000" transform="rotate(116 76.5697 70.0278)"/>
  <path fill="#BBBBBB" d="m72.83834,78.17462l4.47761,-21.51742l4.47761,21.51742l-8.95522,0z" id="svg_166" stroke-width="0.2" stroke="#000" transform="rotate(116 77.316 67.4159)"/>
  <path fill="#BBBBBB" d="m72.21308,73.46734l6.25528,-21.51742l6.25528,21.51742l-12.51057,0l0.00001,0z" id="svg_167" stroke-width="0.2" stroke="#000" transform="rotate(116 78.4684 62.7086)"/>
  <path fill="#BBBBBB" d="m76.40595,68.08728l4.47761,-25.30458l4.47761,25.30458l-8.95522,0z" id="svg_168" stroke-width="0.2" stroke="#000" transform="rotate(116 80.8836 55.435)"/>
  <path fill="#BBBBBB" d="m68.60948,84.5179l4.47761,-21.51742l4.47761,21.51742l-8.95522,0z" id="svg_169" stroke-width="0.2" stroke="#000" transform="rotate(116 73.0871 73.7592)"/>
  <path fill="#BBBBBB" d="m78.93286,59.14477l4.47761,-21.51742l4.47761,21.51742l-8.95522,0z" id="svg_170" stroke-width="0.2" stroke="#000" transform="rotate(116 83.4105 48.386)"/>
  <path fill="#BBBBBB" d="m79.306,56.78159l4.47761,-21.51742l4.47761,21.51742l-8.95522,0z" id="svg_171" stroke-width="0.2" stroke="#000" transform="rotate(108 83.7836 46.0229)"/>
  <path fill="#BBBBBB" d="m66.2463,88.498l4.47761,-21.51742l4.47761,21.51742l-8.95522,0z" id="svg_172" stroke-width="0.2" stroke="#000" transform="rotate(116 70.7239 77.7393)"/>
  <path fill="#BBBBBB" d="m77.81346,63.00049l4.47761,-21.51742l4.47761,21.51742l-8.95522,0z" id="svg_173" stroke-width="0.2" stroke="#000" transform="rotate(116 82.2911 52.2417)"/>
  <path fill="#5B9BA2" stroke="#000" stroke-width="0.001" d="m33.64306,81.72835c3.52405,-3.13908 7.04809,3.13908 10.57214,0l0,5.65034c-3.52405,3.13908 -7.04809,-3.13908 -10.57214,0l0,-5.65034z" id="svg_177"/>
  <path fill="#5B9BA2" stroke="#000" stroke-width="0.001" d="m44.0277,81.85335c3.52404,-3.13908 7.04809,3.13907 10.57214,0l0,5.65033c-3.52405,3.13908 -7.0481,-3.13907 -10.57214,0l0,-5.65033z" id="svg_179"/>
  <path fill="#5B9BA2" stroke="#000" stroke-width="0.001" d="m54.41358,82.03961c3.52404,-3.13908 7.04809,3.13907 10.57214,0l0,5.65033c-3.52405,3.13908 -7.0481,-3.13907 -10.57214,0l0,-5.65033z" id="svg_180"/>
  <path fill="#5B9BA2" stroke="#000" stroke-width="0.001" d="m38.49381,78.37014c3.52404,-3.13908 7.04809,3.13907 10.57214,0l0,5.65033c-3.52405,3.13908 -7.0481,-3.13907 -10.57214,0l0,-5.65033z" id="svg_181"/>
  <path fill="#5B9BA2" stroke="#000" stroke-width="0.001" d="m48.94157,78.37014c3.52404,-3.13908 7.04809,3.13907 10.57214,0l0,5.65033c-3.52405,3.13908 -7.0481,-3.13907 -10.57214,0l0,-5.65033z" id="svg_182"/>
  <path stroke-width="0.001" fill="#5B9BA2" stroke="#000" d="m44.96147,75.01193c3.52404,-3.13908 7.04809,3.13907 10.57214,0l0,5.65033c-3.52405,3.13908 -7.0481,-3.13907 -10.57214,0l0,-5.65033z" id="svg_183"/>
  <path fill="#CFCA6D" stroke="#000" stroke-width="0.1" opacity="undefined" d="m26.12621,17l8.54016,0l0,20.43626l-8.54016,0l0,-20.43626z" id="svg_47"/>
  <rect fill="#FFF093" stroke-width="0.1" x="27.18328" y="17.91071" width="2.40174" height="1.90325" id="svg_49" stroke="#000"/>
  <rect fill="#FFF093" stroke-width="0.1" x="31.18328" y="17.91071" width="2.40174" height="1.90325" id="svg_50" stroke="#000"/>
  <rect fill="#FFF093" stroke-width="0.1" x="27.18328" y="20.32621" width="2.40174" height="1.90325" id="svg_51" stroke="#000"/>
  <rect fill="#FFF093" stroke-width="0.1" x="31.18328" y="20.32621" width="2.40174" height="1.90325" id="svg_52" stroke="#000"/>
  <rect fill="#FFF093" stroke-width="0.1" x="27.24578" y="22.71071" width="2.40174" height="1.90325" id="svg_54" stroke="#000"/>
  <rect fill="#FFF093" stroke-width="0.1" x="31.18328" y="22.71071" width="2.40174" height="1.90325" id="svg_55" stroke="#000"/>
  <rect fill="#FFF093" stroke-width="0.1" x="27.18328" y="25.12621" width="2.40174" height="1.90325" id="svg_56" stroke="#000"/>
  <rect fill="#FFF093" stroke-width="0.1" x="31.18328" y="25.12621" width="2.40174" height="1.90325" id="svg_57" stroke="#000"/>
  <rect fill="#FFF093" stroke-width="0.1" x="27.18328" y="27.51071" width="2.40174" height="1.90325" id="svg_59" stroke="#000"/>
  <rect fill="#FFF093" stroke-width="0.1" x="31.18328" y="27.51071" width="2.40174" height="1.90325" id="svg_60" stroke="#000"/>
  <rect fill="#FFF093" stroke-width="0.1" x="27.18328" y="29.92621" width="2.40174" height="1.90325" id="svg_61" stroke="#000"/>
  <rect fill="#FFF093" stroke-width="0.1" x="31.18328" y="29.92621" width="2.40174" height="1.90325" id="svg_62" stroke="#000"/>
  <rect fill="#FFF093" stroke-width="0.1" x="27.18328" y="32.31071" width="2.40174" height="1.90325" id="svg_64" stroke="#000"/>
  <path fill="#FFF093" stroke="#000" stroke-width="0.1" opacity="undefined" d="m31.18328,32.31071l2.40174,0l0,1.90325l-2.40174,0l0,-1.90325z" id="svg_65"/>
  <path fill="#CFCA6D" stroke="#000" stroke-width="0.1" opacity="undefined" d="m16,22.96l8.54016,0l0,14.46767l-8.54016,0l0,-14.46767z" id="svg_9"/>
  <rect fill="#FFF093" stroke-width="0.1" x="17.28328" y="24.14921" width="2.40174" height="1.90325" id="svg_18" stroke="#000"/>
  <rect fill="#FFF093" stroke-width="0.1" x="21.28328" y="24.14921" width="2.40174" height="1.90325" id="svg_19" stroke="#000"/>
  <rect fill="#FFF093" stroke-width="0.1" x="17.28328" y="26.56471" width="2.40174" height="1.90325" id="svg_20" stroke="#000"/>
  <rect fill="#FFF093" stroke-width="0.1" x="21.28328" y="26.56471" width="2.40174" height="1.90325" id="svg_21" stroke="#000"/>
  <rect fill="#FFF093" stroke-width="0.1" x="17.28328" y="29.06471" width="2.40174" height="1.90325" id="svg_22" stroke="#000"/>
  <rect fill="#FFF093" stroke-width="0.1" x="21.28328" y="29.06471" width="2.40174" height="1.90325" id="svg_23" stroke="#000"/>
  <rect fill="#FFF093" stroke-width="0.1" x="17.28328" y="31.56471" width="2.40174" height="1.90325" id="svg_24" stroke="#000"/>
  <rect fill="#FFF093" stroke-width="0.1" x="21.28328" y="31.56471" width="2.40174" height="1.90325" id="svg_25" stroke="#000"/>
  <rect fill="#FFF093" stroke-width="0.1" x="17.28328" y="34.06471" width="2.40174" height="1.90325" id="svg_26" stroke="#000"/>
  <path fill="#FFF093" stroke="#000" stroke-width="0.1" opacity="undefined" d="m21.28328,34.06471l2.40174,0l0,1.90325l-2.40174,0l0,-1.90325z" id="svg_28"/>
  <path fill="#CFCA6D" stroke-width="0.1" opacity="undefined" d="m36,20.64639l8.54016,0l0,16.69981l-8.54016,0l0,-16.69981z" id="svg_78" stroke="#000"/>
  <rect fill="#FFF093" stroke-width="0.1" x="37.23214" y="22" width="2.40174" height="1.90325" id="svg_79" stroke="#000"/>
  <rect fill="#FFF093" stroke-width="0.1" x="41.23214" y="22" width="2.40174" height="1.90325" id="svg_80" stroke="#000"/>
  <rect fill="#FFF093" stroke-width="0.1" x="37.23214" y="24.4155" width="2.40174" height="1.90325" id="svg_81" stroke="#000"/>
  <rect fill="#FFF093" stroke-width="0.1" x="41.23214" y="24.4155" width="2.40174" height="1.90325" id="svg_82" stroke="#000"/>
  <rect fill="#FFF093" stroke-width="0.1" x="37.23214" y="27" width="2.40174" height="1.90325" id="svg_84" stroke="#000"/>
  <rect fill="#FFF093" stroke-width="0.1" x="41.23214" y="27" width="2.40174" height="1.90325" id="svg_85" stroke="#000"/>
  <rect fill="#FFF093" stroke-width="0.1" x="37.23214" y="29.5" width="2.40174" height="1.90325" id="svg_86" stroke="#000"/>
  <rect fill="#FFF093" stroke-width="0.1" x="41.23214" y="29.5" width="2.40174" height="1.90325" id="svg_87" stroke="#000"/>
  <rect fill="#FFF093" stroke-width="0.1" x="37.2" y="32" width="2.40174" height="1.90325" id="svg_95" stroke="#000"/>
  <rect fill="#FFF093" stroke-width="0.1" x="41.2" y="32" width="2.40174" height="1.90325" id="svg_96" stroke="#000"/>
  <rect fill="#FFF093" stroke-width="0.1" x="37.2" y="34.4155" width="2.40174" height="1.90325" id="svg_97" stroke="#000"/>
  <rect fill="#FFF093" stroke-width="0.1" x="41.2" y="34.4155" width="2.40174" height="1.90325" id="svg_98" stroke="#000"/>
  <path fill="#FFFA8D" d="m-0.0625,38.09781l38.08927,0l11.76988,-38.03531l11.76989,38.03531l38.08927,0l-30.81481,23.50684l11.77049,38.03531l-30.81483,-23.50748l-30.81482,23.50748l11.77049,-38.03531l-30.81482,-23.50684l-0.00001,0z" id="svg_8" stroke="#000"/>
 </g>

</svg>