<svg width="150" height="150" xmlns="http://www.w3.org/2000/svg">
    <defs>
        <style>
            #all {
                transform-origin: 50px 50px;
                animation:cont-spin 15s linear infinite;
            }
            @keyframes cont-spin{
                from{transform:rotate(0deg);}
                to{transform:rotate(360deg);}
            }
        </style>
    </defs>
 <g id="all">
  <title>Layer 1</title>
  <g id="svg_2">
   <path id="svg_1" d="m49.92166,95.0348c-24.86188,0 -45,-20.13812 -45,-45c0,-24.86188 20.13812,-45 45,-45c24.86188,0 45,20.13812 45,45c0,24.86188 -20.13812,45 -45,45z" opacity="undefined" stroke-width="0.001" stroke="#000" fill="#74556D"/>
   <g id="svg_155">
    <g transform="rotate(-112 13.6206 47.9922)" id="svg_101">
     <path id="svg_34" d="m10.02308,50.15601l3.59756,-5.97561l3.59756,5.97561l-7.19512,0z" stroke-width="0.2" stroke="#000" fill="#729C62"/>
     <path stroke-width="0.2" id="svg_33" d="m10.02308,46.85524l3.59756,-5.97561l3.59756,5.97561l-7.19512,0z" stroke="#000" fill="#729C62"/>
     <rect stroke="#000" id="svg_35" height="4.8242" width="3.17073" y="50.28063" x="12.22308" stroke-width="0.2" fill="#482816"/>
    </g>
    <g transform="rotate(-112 18.0366 51.5535)" id="svg_105">
     <path id="svg_102" d="m14.43903,53.71726l3.59756,-5.97561l3.59756,5.97561l-7.19512,0z" stroke-width="0.2" stroke="#000" fill="#729C62"/>
     <path stroke-width="0.2" id="svg_103" d="m14.43903,50.41649l3.59756,-5.97561l3.59756,5.97561l-7.19512,0z" stroke="#000" fill="#729C62"/>
     <rect stroke="#000" id="svg_104" height="4.8242" width="3.17073" y="53.84188" x="16.63903" stroke-width="0.2" fill="#482816"/>
    </g>
    <g transform="rotate(-112 15.0249 50.345)" stroke="null" id="svg_109">
     <path stroke="#000" id="svg_106" d="m11.42732,52.96956l3.59756,-7.24805l3.59756,7.24805l-7.19512,0z" stroke-width="0.2" fill="#729C62"/>
     <path stroke="#000" stroke-width="0.2" id="svg_107" d="m11.42732,48.96593l3.59756,-7.24805l3.59756,7.24805l-7.19512,0z" fill="#729C62"/>
     <rect stroke="#000" id="svg_108" height="5.85145" width="3.17073" y="53.12071" x="13.62731" stroke-width="0.2" fill="#482816"/>
    </g>
    <g transform="rotate(-112 17.0394 55.7557)" id="svg_113">
     <path id="svg_110" d="m13.44188,57.91954l3.59756,-5.97561l3.59756,5.97561l-7.19512,0z" stroke-width="0.2" stroke="#000" fill="#729C62"/>
     <path stroke-width="0.2" id="svg_111" d="m13.44188,54.61877l3.59756,-5.97561l3.59756,5.97561l-7.19512,0z" stroke="#000" fill="#729C62"/>
     <rect stroke="#000" id="svg_112" height="4.8242" width="3.17073" y="58.04416" x="15.64188" stroke-width="0.2" fill="#482816"/>
    </g>
    <g transform="rotate(-112 15.1876 53.4053)" id="svg_117">
     <path id="svg_114" d="m11.59003,55.56912l3.59756,-5.97561l3.59756,5.97561l-7.19512,0z" stroke-width="0.2" stroke="#000" fill="#729C62"/>
     <path stroke-width="0.2" id="svg_115" d="m11.59003,52.26835l3.59756,-5.97561l3.59756,5.97561l-7.19512,0z" stroke="#000" fill="#729C62"/>
     <rect stroke="#000" id="svg_116" height="4.8242" width="3.17073" y="55.69373" x="13.79003" stroke-width="0.2" fill="#482816"/>
    </g>
    <g transform="rotate(-112 20.1308 58.0837)" stroke="null" id="svg_121">
     <path stroke="#000" id="svg_118" d="m16.53324,60.5185l3.59756,-6.72406l3.59756,6.72406l-7.19512,0z" stroke-width="0.2" fill="#729C62"/>
     <path stroke="#000" stroke-width="0.2" id="svg_119" d="m16.53324,56.80431l3.59756,-6.72406l3.59756,6.72406l-7.19512,0z" fill="#729C62"/>
     <rect stroke="#000" id="svg_120" height="5.42843" width="3.17073" y="60.65873" x="18.73324" stroke-width="0.2" fill="#482816"/>
    </g>
    <g transform="rotate(-112 21.3841 60.0292)" id="svg_125">
     <path id="svg_122" d="m17.78661,62.19305l3.59756,-5.97561l3.59756,5.97561l-7.19512,0z" stroke-width="0.2" stroke="#000" fill="#729C62"/>
     <path stroke-width="0.2" id="svg_123" d="m17.78661,58.89228l3.59756,-5.97561l3.59756,5.97561l-7.19512,0z" stroke="#000" fill="#729C62"/>
     <rect stroke="#000" id="svg_124" height="4.8242" width="3.17073" y="62.31766" x="19.98661" stroke-width="0.2" fill="#482816"/>
    </g>
    <g transform="rotate(-112 24.9454 61.8099)" id="svg_129">
     <path id="svg_126" d="m21.34787,63.97367l3.59756,-5.97561l3.59756,5.97561l-7.19512,0z" stroke-width="0.2" stroke="#000" fill="#729C62"/>
     <path stroke-width="0.2" id="svg_127" d="m21.34787,60.6729l3.59756,-5.97561l3.59756,5.97561l-7.19512,0z" stroke="#000" fill="#729C62"/>
     <rect stroke="#000" id="svg_128" height="4.8242" width="3.17073" y="64.09829" x="23.54786" stroke-width="0.2" fill="#482816"/>
    </g>
    <g transform="rotate(-112 24.3888 64.8866)" stroke="null" id="svg_133">
     <path stroke="#000" id="svg_130" d="m20.79127,67.46665l3.59756,-7.12532l3.59756,7.12532l-7.19512,0z" stroke-width="0.2" fill="#729C62"/>
     <path stroke="#000" stroke-width="0.2" id="svg_131" d="m20.79127,63.53081l3.59756,-7.12532l3.59756,7.12532l-7.19512,0z" fill="#729C62"/>
     <rect stroke="#000" id="svg_132" height="5.75237" width="3.17073" y="67.61524" x="22.99127" stroke-width="0.2" fill="#482816"/>
    </g>
    <g transform="rotate(-112 22.776 62.1734)" stroke="null" id="svg_137">
     <path stroke="#000" id="svg_134" d="m19.17848,64.79386l3.59756,-7.23684l3.59756,7.23684l-7.19512,0z" stroke-width="0.2" fill="#729C62"/>
     <path stroke="#000" stroke-width="0.2" id="svg_135" d="m19.17848,60.79642l3.59756,-7.23684l3.59756,7.23684l-7.19512,0z" fill="#729C62"/>
     <rect stroke="#000" id="svg_136" height="5.84241" width="3.17073" y="64.94478" x="21.37847" stroke-width="0.2" fill="#482816"/>
    </g>
    <g transform="rotate(-112 26.085 67.7928)" id="svg_141">
     <path id="svg_138" d="m22.48747,69.95658l3.59756,-5.97561l3.59756,5.97561l-7.19512,0z" stroke-width="0.2" stroke="#000" fill="#729C62"/>
     <path stroke-width="0.2" id="svg_139" d="m22.48747,66.65581l3.59756,-5.97561l3.59756,5.97561l-7.19512,0z" stroke="#000" fill="#729C62"/>
     <rect stroke="#000" id="svg_140" height="4.8242" width="3.17073" y="70.0812" x="24.68746" stroke-width="0.2" fill="#482816"/>
    </g>
    <g transform="rotate(-112 25.7289 71.8526)" id="svg_145">
     <path id="svg_142" d="m22.13134,74.01641l3.59756,-5.97561l3.59756,5.97561l-7.19512,0z" stroke-width="0.2" stroke="#000" fill="#729C62"/>
     <path stroke-width="0.2" id="svg_143" d="m22.13134,70.71564l3.59756,-5.97561l3.59756,5.97561l-7.19512,0z" stroke="#000" fill="#729C62"/>
     <rect stroke="#000" id="svg_144" height="4.8242" width="3.17073" y="74.14103" x="24.33134" stroke-width="0.2" fill="#482816"/>
    </g>
    <g transform="rotate(-112 25.5152 76.6247)" id="svg_149">
     <path id="svg_146" d="m21.91767,78.78849l3.59756,-5.97561l3.59756,5.97561l-7.19512,0z" stroke-width="0.2" stroke="#000" fill="#729C62"/>
     <path stroke-width="0.2" id="svg_147" d="m21.91767,75.48772l3.59756,-5.97561l3.59756,5.97561l-7.19512,0z" stroke="#000" fill="#729C62"/>
     <rect stroke="#000" id="svg_148" height="4.8242" width="3.17073" y="78.91311" x="24.11766" stroke-width="0.2" fill="#482816"/>
    </g>
    <g transform="rotate(-112 27.7232 79.7586)" id="svg_153">
     <path id="svg_150" d="m24.12564,81.92239l3.59756,-5.97561l3.59756,5.97561l-7.19512,0z" stroke-width="0.2" stroke="#000" fill="#729C62"/>
     <path stroke-width="0.2" id="svg_151" d="m24.12564,78.62162l3.59756,-5.97561l3.59756,5.97561l-7.19512,0z" stroke="#000" fill="#729C62"/>
     <rect stroke="#000" id="svg_152" height="4.8242" width="3.17073" y="82.04701" x="26.32564" stroke-width="0.2" fill="#482816"/>
    </g>
   </g>
   <path transform="rotate(-28 69.1666 23.9153)" fill="#845335" stroke="#000" opacity="NaN" d="m72.77595,20.01659c-8.70647,4.72637 -18.7811,2.11443 -7.71144,5.47264c11.06965,3.35821 -5.84577,12.43781 3.10945,5.72139c8.95523,-6.71642 9.20398,12.68657 9.32836,0.37313c0.12438,-12.31343 1.36816,-10.8209 0,-12.31343c-1.36816,-1.49254 -10.94528,-9.70149 -12.06468,-6.46766c-1.1194,3.23383 -7.21393,4.47761 -2.73632,5.47264c4.47761,0.99503 18.7811,-2.98508 10.07463,1.74129z" id="svg_31"/>
   <ellipse stroke-width="0.001" ry="0.8642" rx="0.80247" id="svg_7" cy="18.07737" cx="62.94428" stroke="#000" fill="#ffffff"/>
   <path transform="rotate(116 68.6095 79.2318)" stroke="#000" stroke-width="0.2" id="svg_157" d="m64.13187,89.99054l4.47761,-21.51741l4.47761,21.51741l-8.95522,0z" fill="#BBBBBB"/>
   <path transform="rotate(116 71.7899 75.5973)" stroke="#000" stroke-width="0.2" id="svg_159" d="m66.86653,86.356l4.9234,-21.51742l4.9234,21.51742l-9.8468,0z" fill="#BBBBBB"/>
   <path transform="rotate(116 76.1965 71.5204)" stroke="#000" stroke-width="0.2" id="svg_160" d="m71.71893,82.2791l4.47761,-21.51742l4.47761,21.51742l-8.95522,0z" fill="#BBBBBB"/>
   <path transform="rotate(116 78.6841 65.0527)" stroke="#000" stroke-width="0.2" id="svg_161" d="m74.20649,75.81144l4.47761,-21.51742l4.47761,21.51742l-8.95522,0z" fill="#BBBBBB"/>
   <path transform="rotate(116 82.6642 59.3313)" stroke="#000" stroke-width="0.2" id="svg_162" d="m78.18659,70.09004l4.47761,-21.51742l4.47761,21.51742l-8.95522,0z" fill="#BBBBBB"/>
   <path transform="rotate(99 83.908 49.2567)" stroke="#000" stroke-width="0.2" id="svg_163" d="m79.43037,60.01541l4.47761,-21.51742l4.47761,21.51742l-8.95522,0z" fill="#BBBBBB"/>
   <path transform="rotate(116 82.0423 60.8238)" stroke="#000" stroke-width="0.2" id="svg_164" d="m77.5647,71.58258l4.47761,-21.51742l4.47761,21.51742l-8.95522,0z" fill="#BBBBBB"/>
   <path transform="rotate(116 76.5697 70.0278)" stroke="#000" stroke-width="0.2" id="svg_165" d="m72.09206,80.78656l4.47761,-21.51742l4.47761,21.51742l-8.95522,0z" fill="#BBBBBB"/>
   <path transform="rotate(116 77.316 67.4159)" stroke="#000" stroke-width="0.2" id="svg_166" d="m72.83834,78.17462l4.47761,-21.51742l4.47761,21.51742l-8.95522,0z" fill="#BBBBBB"/>
   <path transform="rotate(116 78.4684 62.7086)" stroke="#000" stroke-width="0.2" id="svg_167" d="m72.21308,73.46734l6.25528,-21.51742l6.25528,21.51742l-12.51057,0l0.00001,0z" fill="#BBBBBB"/>
   <path transform="rotate(116 80.8836 55.435)" stroke="#000" stroke-width="0.2" id="svg_168" d="m76.40595,68.08728l4.47761,-25.30458l4.47761,25.30458l-8.95522,0z" fill="#BBBBBB"/>
   <path transform="rotate(116 73.0871 73.7592)" stroke="#000" stroke-width="0.2" id="svg_169" d="m68.60948,84.5179l4.47761,-21.51742l4.47761,21.51742l-8.95522,0z" fill="#BBBBBB"/>
   <path transform="rotate(116 83.4105 48.386)" stroke="#000" stroke-width="0.2" id="svg_170" d="m78.93286,59.14477l4.47761,-21.51742l4.47761,21.51742l-8.95522,0z" fill="#BBBBBB"/>
   <path transform="rotate(108 83.7836 46.0229)" stroke="#000" stroke-width="0.2" id="svg_171" d="m79.306,56.78159l4.47761,-21.51742l4.47761,21.51742l-8.95522,0z" fill="#BBBBBB"/>
   <path transform="rotate(116 70.7239 77.7393)" stroke="#000" stroke-width="0.2" id="svg_172" d="m66.2463,88.498l4.47761,-21.51742l4.47761,21.51742l-8.95522,0z" fill="#BBBBBB"/>
   <path transform="rotate(116 82.2911 52.2417)" stroke="#000" stroke-width="0.2" id="svg_173" d="m77.81346,63.00049l4.47761,-21.51742l4.47761,21.51742l-8.95522,0z" fill="#BBBBBB"/>
   <path id="svg_177" d="m33.64306,81.72835c3.52405,-3.13908 7.04809,3.13908 10.57214,0l0,5.65034c-3.52405,3.13908 -7.04809,-3.13908 -10.57214,0l0,-5.65034z" stroke-width="0.001" stroke="#000" fill="#5B9BA2"/>
   <path id="svg_179" d="m44.0277,81.85335c3.52404,-3.13908 7.04809,3.13907 10.57214,0l0,5.65033c-3.52405,3.13908 -7.0481,-3.13907 -10.57214,0l0,-5.65033z" stroke-width="0.001" stroke="#000" fill="#5B9BA2"/>
   <path id="svg_180" d="m54.41358,82.03961c3.52404,-3.13908 7.04809,3.13907 10.57214,0l0,5.65033c-3.52405,3.13908 -7.0481,-3.13907 -10.57214,0l0,-5.65033z" stroke-width="0.001" stroke="#000" fill="#5B9BA2"/>
   <path id="svg_181" d="m38.49381,78.37014c3.52404,-3.13908 7.04809,3.13907 10.57214,0l0,5.65033c-3.52405,3.13908 -7.0481,-3.13907 -10.57214,0l0,-5.65033z" stroke-width="0.001" stroke="#000" fill="#5B9BA2"/>
   <path id="svg_182" d="m48.94157,78.37014c3.52404,-3.13908 7.04809,3.13907 10.57214,0l0,5.65033c-3.52405,3.13908 -7.0481,-3.13907 -10.57214,0l0,-5.65033z" stroke-width="0.001" stroke="#000" fill="#5B9BA2"/>
   <path id="svg_183" d="m44.96147,75.01193c3.52404,-3.13908 7.04809,3.13907 10.57214,0l0,5.65033c-3.52405,3.13908 -7.0481,-3.13907 -10.57214,0l0,-5.65033z" stroke="#000" fill="#5B9BA2" stroke-width="0.001"/>
   <path id="svg_47" d="m26.12621,17l8.54016,0l0,20.43626l-8.54016,0l0,-20.43626z" opacity="undefined" stroke-width="0.1" stroke="#000" fill="#CFCA6D"/>
   <rect stroke="#000" id="svg_49" height="1.90325" width="2.40174" y="17.91071" x="27.18328" stroke-width="0.1" fill="#FFF093"/>
   <rect stroke="#000" id="svg_50" height="1.90325" width="2.40174" y="17.91071" x="31.18328" stroke-width="0.1" fill="#FFF093"/>
   <rect stroke="#000" id="svg_51" height="1.90325" width="2.40174" y="20.32621" x="27.18328" stroke-width="0.1" fill="#FFF093"/>
   <rect stroke="#000" id="svg_52" height="1.90325" width="2.40174" y="20.32621" x="31.18328" stroke-width="0.1" fill="#FFF093"/>
   <rect stroke="#000" id="svg_54" height="1.90325" width="2.40174" y="22.71071" x="27.24578" stroke-width="0.1" fill="#FFF093"/>
   <rect stroke="#000" id="svg_55" height="1.90325" width="2.40174" y="22.71071" x="31.18328" stroke-width="0.1" fill="#FFF093"/>
   <rect stroke="#000" id="svg_56" height="1.90325" width="2.40174" y="25.12621" x="27.18328" stroke-width="0.1" fill="#FFF093"/>
   <rect stroke="#000" id="svg_57" height="1.90325" width="2.40174" y="25.12621" x="31.18328" stroke-width="0.1" fill="#FFF093"/>
   <rect stroke="#000" id="svg_59" height="1.90325" width="2.40174" y="27.51071" x="27.18328" stroke-width="0.1" fill="#FFF093"/>
   <rect stroke="#000" id="svg_60" height="1.90325" width="2.40174" y="27.51071" x="31.18328" stroke-width="0.1" fill="#FFF093"/>
   <rect stroke="#000" id="svg_61" height="1.90325" width="2.40174" y="29.92621" x="27.18328" stroke-width="0.1" fill="#FFF093"/>
   <rect stroke="#000" id="svg_62" height="1.90325" width="2.40174" y="29.92621" x="31.18328" stroke-width="0.1" fill="#FFF093"/>
   <rect stroke="#000" id="svg_64" height="1.90325" width="2.40174" y="32.31071" x="27.18328" stroke-width="0.1" fill="#FFF093"/>
   <path id="svg_65" d="m31.18328,32.31071l2.40174,0l0,1.90325l-2.40174,0l0,-1.90325z" opacity="undefined" stroke-width="0.1" stroke="#000" fill="#FFF093"/>
   <path id="svg_9" d="m16,22.96l8.54016,0l0,14.46767l-8.54016,0l0,-14.46767z" opacity="undefined" stroke-width="0.1" stroke="#000" fill="#CFCA6D"/>
   <rect stroke="#000" id="svg_18" height="1.90325" width="2.40174" y="24.14921" x="17.28328" stroke-width="0.1" fill="#FFF093"/>
   <rect stroke="#000" id="svg_19" height="1.90325" width="2.40174" y="24.14921" x="21.28328" stroke-width="0.1" fill="#FFF093"/>
   <rect stroke="#000" id="svg_20" height="1.90325" width="2.40174" y="26.56471" x="17.28328" stroke-width="0.1" fill="#FFF093"/>
   <rect stroke="#000" id="svg_21" height="1.90325" width="2.40174" y="26.56471" x="21.28328" stroke-width="0.1" fill="#FFF093"/>
   <rect stroke="#000" id="svg_22" height="1.90325" width="2.40174" y="29.06471" x="17.28328" stroke-width="0.1" fill="#FFF093"/>
   <rect stroke="#000" id="svg_23" height="1.90325" width="2.40174" y="29.06471" x="21.28328" stroke-width="0.1" fill="#FFF093"/>
   <rect stroke="#000" id="svg_24" height="1.90325" width="2.40174" y="31.56471" x="17.28328" stroke-width="0.1" fill="#FFF093"/>
   <rect stroke="#000" id="svg_25" height="1.90325" width="2.40174" y="31.56471" x="21.28328" stroke-width="0.1" fill="#FFF093"/>
   <rect stroke="#000" id="svg_26" height="1.90325" width="2.40174" y="34.06471" x="17.28328" stroke-width="0.1" fill="#FFF093"/>
   <path id="svg_28" d="m21.28328,34.06471l2.40174,0l0,1.90325l-2.40174,0l0,-1.90325z" opacity="undefined" stroke-width="0.1" stroke="#000" fill="#FFF093"/>
   <path stroke="#000" id="svg_78" d="m36,20.64639l8.54016,0l0,16.69981l-8.54016,0l0,-16.69981z" opacity="undefined" stroke-width="0.1" fill="#CFCA6D"/>
   <rect stroke="#000" id="svg_79" height="1.90325" width="2.40174" y="22" x="37.23214" stroke-width="0.1" fill="#FFF093"/>
   <rect stroke="#000" id="svg_80" height="1.90325" width="2.40174" y="22" x="41.23214" stroke-width="0.1" fill="#FFF093"/>
   <rect stroke="#000" id="svg_81" height="1.90325" width="2.40174" y="24.4155" x="37.23214" stroke-width="0.1" fill="#FFF093"/>
   <rect stroke="#000" id="svg_82" height="1.90325" width="2.40174" y="24.4155" x="41.23214" stroke-width="0.1" fill="#FFF093"/>
   <rect stroke="#000" id="svg_84" height="1.90325" width="2.40174" y="27" x="37.23214" stroke-width="0.1" fill="#FFF093"/>
   <rect stroke="#000" id="svg_85" height="1.90325" width="2.40174" y="27" x="41.23214" stroke-width="0.1" fill="#FFF093"/>
   <rect stroke="#000" id="svg_86" height="1.90325" width="2.40174" y="29.5" x="37.23214" stroke-width="0.1" fill="#FFF093"/>
   <rect stroke="#000" id="svg_87" height="1.90325" width="2.40174" y="29.5" x="41.23214" stroke-width="0.1" fill="#FFF093"/>
   <rect stroke="#000" id="svg_95" height="1.90325" width="2.40174" y="32" x="37.2" stroke-width="0.1" fill="#FFF093"/>
   <rect stroke="#000" id="svg_96" height="1.90325" width="2.40174" y="32" x="41.2" stroke-width="0.1" fill="#FFF093"/>
   <rect stroke="#000" id="svg_97" height="1.90325" width="2.40174" y="34.4155" x="37.2" stroke-width="0.1" fill="#FFF093"/>
   <rect stroke="#000" id="svg_98" height="1.90325" width="2.40174" y="34.4155" x="41.2" stroke-width="0.1" fill="#FFF093"/>
   <path stroke="#000" id="svg_8" d="m-0.0625,38.09781l38.08927,0l11.76988,-38.03531l11.76989,38.03531l38.08927,0l-30.81481,23.50684l11.77049,38.03531l-30.81483,-23.50748l-30.81482,23.50748l11.77049,-38.03531l-30.81482,-23.50684l-0.00001,0z" fill="#FFFA8D"/>
  </g>
 </g>

</svg>